<?xml version="1.0" encoding="utf-8"?>
<!-- Generator: Adobe Illustrator 23.0.0, SVG Export Plug-In . SVG Version: 6.00 Build 0)  -->
<svg version="1.1" xmlns="http://www.w3.org/2000/svg" xmlns:xlink="http://www.w3.org/1999/xlink" x="0px" y="0px"
	 viewBox="0 0 750 500" style="enable-background:new 0 0 750 500;" xml:space="preserve">
<style type="text/css">
	.st0{clip-path:url(#SVGID_2_);}
	.st1{fill:#E8524A;}
	.st2{fill:#FFFFFF;}
	.st3{clip-path:url(#SVGID_2_);fill:#FFFFFF;}
	.st4{clip-path:url(#SVGID_2_);fill:#E8524A;}
	.st5{clip-path:url(#SVGID_2_);fill:none;stroke:#FFFFFF;stroke-width:0.25;stroke-miterlimit:10;}
	.st6{clip-path:url(#SVGID_2_);fill:none;stroke:#FFFFFF;stroke-width:0.483;stroke-miterlimit:10;}
	.st7{fill:none;stroke:#322D3E;stroke-width:0.6748;stroke-miterlimit:10;}
	.st8{opacity:0.9375;fill:none;stroke:#322D3E;stroke-width:0.6748;stroke-miterlimit:10;}
	.st9{opacity:0.875;fill:none;stroke:#322D3E;stroke-width:0.6748;stroke-miterlimit:10;}
	.st10{opacity:0.8125;fill:none;stroke:#322D3E;stroke-width:0.6748;stroke-miterlimit:10;}
	.st11{opacity:0.75;fill:none;stroke:#322D3E;stroke-width:0.6748;stroke-miterlimit:10;}
	.st12{opacity:0.6875;fill:none;stroke:#322D3E;stroke-width:0.6748;stroke-miterlimit:10;}
	.st13{opacity:0.625;fill:none;stroke:#322D3E;stroke-width:0.6748;stroke-miterlimit:10;}
	.st14{opacity:0.5625;fill:none;stroke:#322D3E;stroke-width:0.6748;stroke-miterlimit:10;}
	.st15{opacity:0.5;fill:none;stroke:#322D3E;stroke-width:0.6748;stroke-miterlimit:10;}
	.st16{opacity:0.4375;fill:none;stroke:#322D3E;stroke-width:0.6748;stroke-miterlimit:10;}
	.st17{opacity:0.375;fill:none;stroke:#322D3E;stroke-width:0.6748;stroke-miterlimit:10;}
	.st18{opacity:0.3125;fill:none;stroke:#322D3E;stroke-width:0.6748;stroke-miterlimit:10;}
	.st19{opacity:0.25;fill:none;stroke:#322D3E;stroke-width:0.6748;stroke-miterlimit:10;}
	.st20{opacity:0.1875;fill:none;stroke:#322D3E;stroke-width:0.6748;stroke-miterlimit:10;}
	.st21{opacity:0.125;fill:none;stroke:#322D3E;stroke-width:0.6748;stroke-miterlimit:10;}
	.st22{opacity:0.0625;fill:none;stroke:#322D3E;stroke-width:0.6748;stroke-miterlimit:10;}
	.st23{opacity:0;fill:none;stroke:#322D3E;stroke-width:0.6748;stroke-miterlimit:10;}
	.st24{fill:#FFFFFF;stroke:#322D3E;stroke-width:0.5098;stroke-miterlimit:10;}
	.st25{opacity:0.9375;fill:#FFFFFF;stroke:#322D3E;stroke-width:0.5098;stroke-miterlimit:10;}
	.st26{opacity:0.875;fill:#FFFFFF;stroke:#322D3E;stroke-width:0.5098;stroke-miterlimit:10;}
	.st27{opacity:0.8125;fill:#FFFFFF;stroke:#322D3E;stroke-width:0.5098;stroke-miterlimit:10;}
	.st28{opacity:0.75;fill:#FFFFFF;stroke:#322D3E;stroke-width:0.5098;stroke-miterlimit:10;}
	.st29{opacity:0.6875;fill:#FFFFFF;stroke:#322D3E;stroke-width:0.5098;stroke-miterlimit:10;}
	.st30{opacity:0.625;fill:#FFFFFF;stroke:#322D3E;stroke-width:0.5098;stroke-miterlimit:10;}
	.st31{opacity:0.5625;fill:#FFFFFF;stroke:#322D3E;stroke-width:0.5098;stroke-miterlimit:10;}
	.st32{opacity:0.5;fill:#FFFFFF;stroke:#322D3E;stroke-width:0.5098;stroke-miterlimit:10;}
	.st33{opacity:0.4375;fill:#FFFFFF;stroke:#322D3E;stroke-width:0.5098;stroke-miterlimit:10;}
	.st34{opacity:0.375;fill:#FFFFFF;stroke:#322D3E;stroke-width:0.5098;stroke-miterlimit:10;}
	.st35{opacity:0.3125;fill:#FFFFFF;stroke:#322D3E;stroke-width:0.5098;stroke-miterlimit:10;}
	.st36{opacity:0.25;fill:#FFFFFF;stroke:#322D3E;stroke-width:0.5098;stroke-miterlimit:10;}
	.st37{opacity:0.1875;fill:#FFFFFF;stroke:#322D3E;stroke-width:0.5098;stroke-miterlimit:10;}
	.st38{opacity:0.125;fill:#FFFFFF;stroke:#322D3E;stroke-width:0.5098;stroke-miterlimit:10;}
	.st39{opacity:0.0625;fill:#FFFFFF;stroke:#322D3E;stroke-width:0.5098;stroke-miterlimit:10;}
	.st40{opacity:0;fill:#FFFFFF;stroke:#322D3E;stroke-width:0.5098;stroke-miterlimit:10;}
</style>
<g id="BACKGROUND">
</g>
<g id="OBJECTS">
	<g>
		<defs>
			<rect id="SVGID_1_" width="750" height="500"/>
		</defs>
		<clipPath id="SVGID_2_">
			<use xlink:href="#SVGID_1_"  style="overflow:visible;"/>
		</clipPath>
		<g class="st0">
			<g>
				<path class="st1" d="M35.06,404.41c20.85,6.38,36.85,20.03,51.98,35.18c14.56,14.58,28.99,29.94,47.95,38.81
					c39.09,18.29,85.01,9.01,123.29-6.66c42.78-17.52,82.97-43.88,129.23-51.57c22.69-3.77,46.96-1.96,66.72,10.71
					c16.37,10.5,25.24,27.12,28.94,45.81c2.1,10.62,2.82,21.4,3.39,32.2h4.95c-0.16-3.06-0.32-6.12-0.54-9.16
					c-1.23-17.68-3.64-36.05-12.93-51.52c-10.56-17.57-29.27-28.73-49.07-32.78c-24.16-4.95-49.22-0.23-72.29,7.44
					c-22.23,7.39-43.28,17.81-64.34,27.95c-40.2,19.36-84.76,39-130.49,30.84c-10.7-1.91-21.09-5.42-30.56-10.76
					c-9.36-5.27-17.59-12.19-25.35-19.57c-15.18-14.42-28.92-30.82-47.05-41.74c-18.74-11.29-41.33-16.25-63.08-13.93
					c-0.03,0-0.06,0.01-0.1,0.01v5.07C8.86,399.26,22.3,400.51,35.06,404.41z"/>
			</g>
		</g>
		<g class="st0">
			<path class="st2" d="M61.64,479.91c47.84,17.87,100.52,0.99,136.29-16.32c18.41-8.91,36.34-19.47,53.68-29.69
				c22.45-13.23,45.66-26.91,70.08-37.08c23.83-9.93,84.31-29.68,130.97,1.22c26.84,17.78,45.5,50.58,55.46,97.49
				c0.94,4.41,1.78,8.88,2.6,13.36h1.02c-0.83-4.54-1.69-9.08-2.64-13.56c-10.01-47.17-28.81-80.18-55.88-98.11
				c-47.07-31.17-107.93-11.3-131.91-1.31c-24.48,10.2-47.73,23.89-70.21,37.14c-17.33,10.21-35.24,20.76-53.61,29.65
				c-35.6,17.23-88,34.04-135.51,16.28c-16.93-6.33-32.37-16.77-47.3-26.87c-6.23-4.21-12.53-8.46-18.98-12.45v1.17
				c6.26,3.89,12.37,8.02,18.42,12.11C29.1,463.07,44.59,473.55,61.64,479.91z"/>
		</g>
		<g class="st0">
			<g>
				<path class="st1" d="M615.9,160.38c-21.53-3.89-42.83-12.29-57.96-28.63c-6.83-7.38-12.21-16.2-14.99-25.9
					c-2.53-8.82-2.84-18.05-1.83-27.13c2.1-18.79,9.46-36.6,15.12-54.49c3.11-9.83,5.9-20.04,7.04-30.35h-4.99
					c-0.14,1.2-0.3,2.39-0.49,3.58c-3.01,19.15-10.72,37.17-16.19,55.67c-5.23,17.68-8.71,36.77-3.25,54.85
					c6.02,19.93,21.62,35.75,39.79,45.23c20.95,10.94,45.02,14.46,68.39,15.19c25.78,0.81,51.48-1.99,77.18-3.61
					c10.94-0.69,22.13-1.12,33.33-0.95v-5.12C710.01,158.04,662.7,168.84,615.9,160.38z"/>
			</g>
		</g>
		<polygon class="st3" points="199.21,357.45 190.88,357.45 190.88,349.12 185.52,349.12 185.52,357.45 177.19,357.45 177.19,362.8 
			185.52,362.8 185.52,371.13 190.88,371.13 190.88,362.8 199.21,362.8 		"/>
		<polygon class="st3" points="561.59,151.6 556.41,151.6 556.41,146.42 553.08,146.42 553.08,151.6 547.9,151.6 547.9,154.93 
			553.08,154.93 553.08,160.11 556.41,160.11 556.41,154.93 561.59,154.93 		"/>
		<polygon class="st4" points="669.18,452.65 660.85,452.65 660.85,444.32 655.5,444.32 655.5,452.65 647.17,452.65 647.17,458.01 
			655.5,458.01 655.5,466.34 660.85,466.34 660.85,458.01 669.18,458.01 		"/>
		<polygon class="st4" points="188.2,87.68 179.87,87.68 179.87,79.35 174.51,79.35 174.51,87.68 166.18,87.68 166.18,93.04 
			174.51,93.04 174.51,101.37 179.87,101.37 179.87,93.04 188.2,93.04 		"/>
		<polygon class="st3" points="509.68,41.45 504.95,41.45 504.95,36.72 501.91,36.72 501.91,41.45 497.18,41.45 497.18,44.49 
			501.91,44.49 501.91,49.21 504.95,49.21 504.95,44.49 509.68,44.49 		"/>
		<g class="st0">
			<g>
				<circle class="st2" cx="62.49" cy="127.82" r="1.22"/>
				<circle class="st1" cx="80.15" cy="127.82" r="1.22"/>
				<circle class="st1" cx="97.81" cy="127.82" r="1.22"/>
				<path class="st2" d="M116.69,127.82c0,0.67-0.55,1.22-1.22,1.22c-0.67,0-1.22-0.55-1.22-1.22c0-0.67,0.55-1.22,1.22-1.22
					C116.15,126.6,116.69,127.15,116.69,127.82z"/>
				<circle class="st1" cx="133.13" cy="127.82" r="1.22"/>
				<circle class="st1" cx="150.79" cy="127.82" r="1.22"/>
				<circle class="st1" cx="168.46" cy="127.82" r="1.22"/>
				<circle class="st1" cx="186.12" cy="127.82" r="1.22"/>
				<circle class="st1" cx="203.78" cy="127.82" r="1.22"/>
			</g>
			<g>
				<circle class="st1" cx="62.49" cy="139.69" r="1.22"/>
				<circle class="st1" cx="80.15" cy="139.69" r="1.22"/>
				<circle class="st1" cx="97.81" cy="139.69" r="1.22"/>
				<path class="st1" d="M116.69,139.69c0,0.67-0.55,1.22-1.22,1.22c-0.67,0-1.22-0.55-1.22-1.22s0.55-1.22,1.22-1.22
					C116.15,138.47,116.69,139.02,116.69,139.69z"/>
				<circle class="st1" cx="133.13" cy="139.69" r="1.22"/>
				<circle class="st2" cx="150.79" cy="139.69" r="1.22"/>
				<circle class="st1" cx="168.46" cy="139.69" r="1.22"/>
				<circle class="st1" cx="186.12" cy="139.69" r="1.22"/>
				<circle class="st2" cx="203.78" cy="139.69" r="1.22"/>
			</g>
			<g>
				<circle class="st1" cx="62.49" cy="151.56" r="1.22"/>
				<circle class="st2" cx="80.15" cy="151.56" r="1.22"/>
				<circle class="st1" cx="97.81" cy="151.56" r="1.22"/>
				<path class="st1" d="M116.69,151.56c0,0.67-0.55,1.22-1.22,1.22c-0.67,0-1.22-0.55-1.22-1.22s0.55-1.22,1.22-1.22
					C116.15,150.34,116.69,150.89,116.69,151.56z"/>
				<circle class="st1" cx="133.13" cy="151.56" r="1.22"/>
				<circle class="st1" cx="150.79" cy="151.56" r="1.22"/>
				<circle class="st2" cx="168.46" cy="151.56" r="1.22"/>
				<circle class="st1" cx="186.12" cy="151.56" r="1.22"/>
				<circle class="st1" cx="203.78" cy="151.56" r="1.22"/>
			</g>
			<g>
				<circle class="st1" cx="62.49" cy="163.43" r="1.22"/>
				<circle class="st1" cx="80.15" cy="163.43" r="1.22"/>
				<circle class="st2" cx="97.81" cy="163.43" r="1.22"/>
				<path class="st1" d="M116.69,163.43c0,0.67-0.55,1.22-1.22,1.22c-0.67,0-1.22-0.55-1.22-1.22c0-0.67,0.55-1.22,1.22-1.22
					C116.15,162.21,116.69,162.76,116.69,163.43z"/>
				<circle class="st2" cx="133.13" cy="163.43" r="1.22"/>
				<circle class="st1" cx="150.79" cy="163.43" r="1.22"/>
				<circle class="st1" cx="168.46" cy="163.43" r="1.22"/>
				<circle class="st1" cx="186.12" cy="163.43" r="1.22"/>
				<circle class="st1" cx="203.78" cy="163.43" r="1.22"/>
				<path class="st1" d="M289.68,211.1c0,0.67-0.55,1.22-1.22,1.22s-1.22-0.55-1.22-1.22c0-0.67,0.55-1.22,1.22-1.22
					S289.68,210.42,289.68,211.1z"/>
				<path class="st1" d="M523.53,431.05c0,0.67-0.55,1.22-1.22,1.22c-0.67,0-1.22-0.55-1.22-1.22c0-0.67,0.55-1.22,1.22-1.22
					C522.99,429.83,523.53,430.37,523.53,431.05z"/>
				<path class="st1" d="M90.37,61.71c0,0.67-0.55,1.22-1.22,1.22s-1.22-0.55-1.22-1.22c0-0.67,0.55-1.22,1.22-1.22
					S90.37,61.04,90.37,61.71z"/>
				<path class="st1" d="M239.73,49.21c0,0.67-0.55,1.22-1.22,1.22s-1.22-0.55-1.22-1.22c0-0.67,0.55-1.22,1.22-1.22
					S239.73,48.54,239.73,49.21z"/>
				<circle class="st1" cx="96.59" cy="335.16" r="1.22"/>
				<circle class="st1" cx="707.75" cy="250" r="1.22"/>
			</g>
			<g>
				<circle class="st1" cx="62.49" cy="175.3" r="1.22"/>
				<circle class="st1" cx="80.15" cy="175.3" r="1.22"/>
				<circle class="st1" cx="97.81" cy="175.3" r="1.22"/>
				<path class="st1" d="M116.69,175.3c0,0.67-0.55,1.22-1.22,1.22c-0.67,0-1.22-0.55-1.22-1.22s0.55-1.22,1.22-1.22
					C116.15,174.08,116.69,174.63,116.69,175.3z"/>
				<circle class="st1" cx="133.13" cy="175.3" r="1.22"/>
				<circle class="st1" cx="150.79" cy="175.3" r="1.22"/>
				<circle class="st1" cx="168.46" cy="175.3" r="1.22"/>
				<circle class="st2" cx="186.12" cy="175.3" r="1.22"/>
				<path class="st2" d="M604.22,206.03c0,0.67-0.55,1.22-1.22,1.22s-1.22-0.55-1.22-1.22s0.55-1.22,1.22-1.22
					S604.22,205.35,604.22,206.03z"/>
				<circle class="st2" cx="203.78" cy="175.3" r="1.22"/>
				<circle class="st2" cx="341.42" cy="407.99" r="1.22"/>
				<circle class="st2" cx="481.93" cy="325.28" r="1.22"/>
				<circle class="st2" cx="608" cy="477.84" r="1.22"/>
				<path class="st2" d="M420.59,102.59c0,0.67-0.55,1.22-1.22,1.22s-1.22-0.55-1.22-1.22c0-0.67,0.55-1.22,1.22-1.22
					S420.59,101.91,420.59,102.59z"/>
			</g>
		</g>
		<g class="st0">
			<g>
				<circle class="st2" cx="566.46" cy="336.38" r="1.22"/>
				<circle class="st1" cx="584.12" cy="336.38" r="1.22"/>
				<circle class="st1" cx="601.78" cy="336.38" r="1.22"/>
				<circle class="st2" cx="619.44" cy="336.38" r="1.22"/>
				<circle class="st1" cx="637.1" cy="336.38" r="1.22"/>
				<circle class="st1" cx="654.77" cy="336.38" r="1.22"/>
				<path class="st1" d="M673.65,336.38c0,0.67-0.55,1.22-1.22,1.22c-0.67,0-1.22-0.55-1.22-1.22s0.55-1.22,1.22-1.22
					C673.1,335.16,673.65,335.71,673.65,336.38z"/>
				<circle class="st1" cx="690.09" cy="336.38" r="1.22"/>
				<circle class="st1" cx="707.75" cy="336.38" r="1.22"/>
			</g>
			<g>
				<circle class="st1" cx="566.46" cy="348.25" r="1.22"/>
				<circle class="st1" cx="584.12" cy="348.25" r="1.22"/>
				<circle class="st1" cx="601.78" cy="348.25" r="1.22"/>
				<circle class="st1" cx="619.44" cy="348.25" r="1.22"/>
				<circle class="st1" cx="637.1" cy="348.25" r="1.22"/>
				<circle class="st2" cx="654.77" cy="348.25" r="1.22"/>
				<path class="st1" d="M673.65,348.25c0,0.67-0.55,1.22-1.22,1.22c-0.67,0-1.22-0.55-1.22-1.22s0.55-1.22,1.22-1.22
					C673.1,347.03,673.65,347.58,673.65,348.25z"/>
				<circle class="st1" cx="690.09" cy="348.25" r="1.22"/>
				<circle class="st2" cx="707.75" cy="348.25" r="1.22"/>
			</g>
			<g>
				<circle class="st1" cx="566.46" cy="360.12" r="1.22"/>
				<circle class="st2" cx="584.12" cy="360.12" r="1.22"/>
				<circle class="st1" cx="601.78" cy="360.12" r="1.22"/>
				<circle class="st1" cx="619.44" cy="360.12" r="1.22"/>
				<circle class="st1" cx="637.1" cy="360.12" r="1.22"/>
				<circle class="st1" cx="654.77" cy="360.12" r="1.22"/>
				<path class="st2" d="M673.65,360.12c0,0.67-0.55,1.22-1.22,1.22c-0.67,0-1.22-0.55-1.22-1.22s0.55-1.22,1.22-1.22
					C673.1,358.9,673.65,359.45,673.65,360.12z"/>
				<circle class="st1" cx="690.09" cy="360.12" r="1.22"/>
				<circle class="st1" cx="707.75" cy="360.12" r="1.22"/>
			</g>
			<g>
				<circle class="st1" cx="566.46" cy="371.99" r="1.22"/>
				<circle class="st1" cx="584.12" cy="371.99" r="1.22"/>
				<circle class="st2" cx="601.78" cy="371.99" r="1.22"/>
				<circle class="st1" cx="619.44" cy="371.99" r="1.22"/>
				<circle class="st2" cx="637.1" cy="371.99" r="1.22"/>
				<circle class="st1" cx="654.77" cy="371.99" r="1.22"/>
				<path class="st1" d="M673.65,371.99c0,0.67-0.55,1.22-1.22,1.22c-0.67,0-1.22-0.55-1.22-1.22s0.55-1.22,1.22-1.22
					C673.1,370.77,673.65,371.32,673.65,371.99z"/>
				<circle class="st1" cx="690.09" cy="371.99" r="1.22"/>
				<circle class="st1" cx="707.75" cy="371.99" r="1.22"/>
			</g>
			<g>
				<circle class="st1" cx="566.46" cy="383.87" r="1.22"/>
				<circle class="st1" cx="584.12" cy="383.87" r="1.22"/>
				<circle class="st1" cx="601.78" cy="383.87" r="1.22"/>
				<circle class="st1" cx="619.44" cy="383.87" r="1.22"/>
				<circle class="st1" cx="637.1" cy="383.87" r="1.22"/>
				<circle class="st1" cx="654.77" cy="383.87" r="1.22"/>
				<path class="st1" d="M673.65,383.87c0,0.67-0.55,1.22-1.22,1.22c-0.67,0-1.22-0.55-1.22-1.22c0-0.67,0.55-1.22,1.22-1.22
					C673.1,382.65,673.65,383.19,673.65,383.87z"/>
				<circle class="st2" cx="690.09" cy="383.87" r="1.22"/>
				<circle class="st2" cx="707.75" cy="383.87" r="1.22"/>
			</g>
		</g>
		<circle class="st5" cx="188.2" cy="358.9" r="50.31"/>
		<circle class="st6" cx="579.13" cy="146.42" r="97.21"/>
		<g class="st0">
			<polygon class="st7" points="26.84,206.03 19.77,213.1 37.96,231.3 19.77,249.49 26.84,256.57 52.11,231.3 			"/>
			<polygon class="st8" points="52.47,231.3 34.28,249.49 41.35,256.57 66.62,231.3 41.35,206.03 34.28,213.1 			"/>
			<polygon class="st9" points="66.98,231.3 48.79,249.49 55.86,256.57 81.13,231.3 55.86,206.03 48.79,213.1 			"/>
			<polygon class="st10" points="81.49,231.3 63.3,249.49 70.37,256.57 95.64,231.3 70.37,206.03 63.3,213.1 			"/>
			<polygon class="st11" points="96,231.3 77.81,249.49 84.88,256.57 110.15,231.3 84.88,206.03 77.81,213.1 			"/>
			<polygon class="st12" points="110.51,231.3 92.32,249.49 99.39,256.57 124.66,231.3 99.39,206.03 92.32,213.1 			"/>
			<polygon class="st13" points="125.02,231.3 106.82,249.49 113.9,256.57 139.17,231.3 113.9,206.03 106.82,213.1 			"/>
			<polygon class="st14" points="139.53,231.3 121.33,249.49 128.41,256.57 153.68,231.3 128.41,206.03 121.33,213.1 			"/>
			<polygon class="st15" points="154.04,231.3 135.84,249.49 142.92,256.57 168.19,231.3 142.92,206.03 135.84,213.1 			"/>
			<polygon class="st16" points="168.55,231.3 150.35,249.49 157.43,256.57 182.7,231.3 157.43,206.03 150.35,213.1 			"/>
			<polygon class="st17" points="183.06,231.3 164.86,249.49 171.94,256.57 197.21,231.3 171.94,206.03 164.86,213.1 			"/>
			<polygon class="st18" points="197.57,231.3 179.37,249.49 186.45,256.57 211.71,231.3 186.45,206.03 179.37,213.1 			"/>
			<polygon class="st19" points="212.08,231.3 193.88,249.49 200.96,256.57 226.22,231.3 200.96,206.03 193.88,213.1 			"/>
			<polygon class="st20" points="226.59,231.3 208.39,249.49 215.47,256.57 240.73,231.3 215.47,206.03 208.39,213.1 			"/>
			<polygon class="st21" points="241.1,231.3 222.9,249.49 229.97,256.57 255.24,231.3 229.97,206.03 222.9,213.1 			"/>
			<polygon class="st22" points="255.61,231.3 237.41,249.49 244.48,256.57 269.75,231.3 244.48,206.03 237.41,213.1 			"/>
			<polygon class="st23" points="258.99,206.03 251.92,213.1 270.12,231.3 251.92,249.49 258.99,256.57 284.26,231.3 			"/>
		</g>
		<g class="st0">
			<polygon class="st24" points="683.34,314.06 688.68,308.71 674.94,294.97 688.68,281.22 683.34,275.88 664.25,294.97 			"/>
			<polygon class="st25" points="663.97,294.97 677.72,281.22 672.38,275.88 653.29,294.97 672.38,314.06 677.72,308.71 			"/>
			<polygon class="st26" points="653.01,294.97 666.76,281.22 661.42,275.88 642.33,294.97 661.42,314.06 666.76,308.71 			"/>
			<polygon class="st27" points="642.05,294.97 655.8,281.22 650.45,275.88 631.37,294.97 650.45,314.06 655.8,308.71 			"/>
			<polygon class="st28" points="631.09,294.97 644.84,281.22 639.49,275.88 620.4,294.97 639.49,314.06 644.84,308.71 			"/>
			<polygon class="st29" points="620.13,294.97 633.88,281.22 628.53,275.88 609.44,294.97 628.53,314.06 633.88,308.71 			"/>
			<polygon class="st30" points="609.17,294.97 622.91,281.22 617.57,275.88 598.48,294.97 617.57,314.06 622.91,308.71 			"/>
			<polygon class="st31" points="598.21,294.97 611.95,281.22 606.61,275.88 587.52,294.97 606.61,314.06 611.95,308.71 			"/>
			<polygon class="st32" points="587.25,294.97 600.99,281.22 595.65,275.88 576.56,294.97 595.65,314.06 600.99,308.71 			"/>
			<polygon class="st33" points="576.28,294.97 590.03,281.22 584.69,275.88 565.6,294.97 584.69,314.06 590.03,308.71 			"/>
			<polygon class="st34" points="565.32,294.97 579.07,281.22 573.73,275.88 554.64,294.97 573.73,314.06 579.07,308.71 			"/>
			<polygon class="st35" points="554.36,294.97 568.11,281.22 562.76,275.88 543.68,294.97 562.76,314.06 568.11,308.71 			"/>
			<polygon class="st36" points="543.4,294.97 557.15,281.22 551.8,275.88 532.71,294.97 551.8,314.06 557.15,308.71 			"/>
			<polygon class="st37" points="532.44,294.97 546.19,281.22 540.84,275.88 521.75,294.97 540.84,314.06 546.19,308.71 			"/>
			<polygon class="st38" points="521.48,294.97 535.22,281.22 529.88,275.88 510.79,294.97 529.88,314.06 535.22,308.71 			"/>
			<polygon class="st39" points="510.52,294.97 524.26,281.22 518.92,275.88 499.83,294.97 518.92,314.06 524.26,308.71 			"/>
			<polygon class="st40" points="507.96,314.06 513.3,308.71 499.56,294.97 513.3,281.22 507.96,275.88 488.87,294.97 			"/>
		</g>
		<g class="st0">
			<path class="st2" d="M689.55,176.63c-4.61,0.45-9.25,0.92-13.91,1.4c-53.47,5.46-108.77,11.1-155.59-13.37
				c-27.95-14.6-49.59-38.66-70.52-61.93c-17.31-19.24-35.21-39.14-56.71-53.85c-43.01-29.42-98.18-36.15-141.45-38.73
				c-10.97-0.65-22.17-1.12-33-1.56C180.49,7.02,141.32,5.4,104.3-4.71c-1.68-0.46-3.33-0.93-4.95-1.42h-3.41
				c2.63,0.83,5.32,1.62,8.1,2.38C141.16,6.39,180.39,8.01,218.33,9.58c10.83,0.45,22.02,0.91,32.98,1.56
				c43.14,2.57,98.14,9.28,140.94,38.56c21.41,14.64,39.27,34.5,56.54,53.7c20.99,23.33,42.69,47.46,70.8,62.15
				c47.09,24.61,102.54,18.95,156.16,13.48c4.66-0.48,9.29-0.95,13.9-1.4c21.15-2.07,44.4-3.43,67.41-1.76v-1
				C734.01,173.2,710.73,174.56,689.55,176.63z"/>
		</g>
	</g>
</g>
</svg>
